# xmcd CD database file
#
# Track frame offsets:
#	150
#	14983
#	34162
#	46851
#	63887
#	80302
#	100720
#	104303
#	117159
#	129491
#	145330
#	159792
#	183852
#
# Disc length: 2717 seconds
#
# Revision: 2
# Processed by: cddbd v1.4PL0 Copyright (c) Steve Scherf et al.
# Submitted via: CDex 1.50beta9
#
DISCID=a00a9b0d
DTITLE=Kieran Kane - Six Months, No Sun
DYEAR=1998
DGENRE=Country
TTITLE0=Table Top Dancer
TTITLE1=Kill The Demon
TTITLE2=(You're Just) Taking Up Space
TTITLE3=In A Town This Size
TTITLE4=Physical Thing
TTITLE5=Foolish As That May Be
TTITLE6=48 And Goal
TTITLE7=What A Wonderful World
TTITLE8=I Wonder Where You Are Tonight
TTITLE9=Hysteria
TTITLE10=Six Months, No Sun
TTITLE11=To Whom It May Concern
TTITLE12=J'aime Faire L'amour
EXTD=YEAR: 1998
EXTT0=
EXTT1=
EXTT2=
EXTT3=
EXTT4=
EXTT5=
EXTT6=
EXTT7=
EXTT8=
EXTT9=
EXTT10=
EXTT11=
EXTT12=
PLAYORDER=
